<svg xmlns="http://www.w3.org/2000/svg" width="20" height="20" viewBox="32 221 20 20"><g data-name="Group 2877"><path d="M36 221h12a4 4 0 0 1 4 4v12a4 4 0 0 1-4 4H36a4 4 0 0 1-4-4v-12a4 4 0 0 1 4-4z" fill="#22c7b8" fill-rule="evenodd" data-name="Rectangle 1559"/><g data-name="fi-rr-calendar"><path d="M46.23 226.077h-.538v-.539a.538.538 0 0 0-1.077 0v.539h-4.307v-.539a.538.538 0 0 0-1.077 0v.539h-.539A2.696 2.696 0 0 0 36 228.769v6.462a2.696 2.696 0 0 0 2.692 2.692h7.539a2.696 2.696 0 0 0 2.692-2.692v-6.462a2.696 2.696 0 0 0-2.692-2.692Zm-9.153 2.692c0-.892.723-1.615 1.615-1.615h7.539c.892 0 1.615.723 1.615 1.615v.539h-10.77v-.539Zm9.154 8.077h-7.539a1.615 1.615 0 0 1-1.615-1.615v-4.846h10.77v4.846c0 .892-.724 1.615-1.616 1.615Z" fill="#fff" fill-rule="evenodd" data-name="Path 751"/><path d="M41.654 232.977a.808.808 0 1 1 0 .1z" fill="#fff" fill-rule="evenodd" data-name="Ellipse 504"/><path d="M38.962 232.977a.808.808 0 1 1 0 .1z" fill="#fff" fill-rule="evenodd" data-name="Ellipse 505"/><path d="M44.346 232.977a.808.808 0 1 1 0 .1z" fill="#fff" fill-rule="evenodd" data-name="Ellipse 506"/></g></g></svg>