<svg xmlns="http://www.w3.org/2000/svg" width="65" height="65" viewBox="1072.5 1810.5 65 65"><g data-name="CompositeLayer"><path d="M1082.348 1810.5h45.304a9.848 9.848 0 0 1 9.848 9.848v45.304a9.848 9.848 0 0 1-9.848 9.848h-45.304a9.848 9.848 0 0 1-9.848-9.848v-45.304a9.848 9.848 0 0 1 9.848-9.848z" stroke-linejoin="round" stroke-linecap="round" stroke="#fff" fill="transparent" data-name="Rectangle 6" stroke-width=".98485"/><g data-name="fi-rr-user-add"><path d="M1118.689 1842.242h-2.408v-2.407a1.204 1.204 0 1 0-2.408 0v2.407h-2.408a1.204 1.204 0 1 0 0 2.408h2.408v2.408a1.204 1.204 0 1 0 2.408 0v-2.408h2.408a1.204 1.204 0 0 0 0-2.408Z" fill="#fff" fill-rule="evenodd" data-name="Path 994"/><path d="M1101.835 1843.446a7.223 7.223 0 1 0-7.223-7.223 7.23 7.23 0 0 0 7.223 7.223Zm0-12.038a4.815 4.815 0 1 1 0 9.63 4.815 4.815 0 0 1 0-9.63Z" fill="#fff" fill-rule="evenodd" data-name="Path 995"/><path d="M1101.835 1845.854c-5.981.007-10.828 4.854-10.835 10.835a1.204 1.204 0 0 0 2.408 0 8.427 8.427 0 1 1 16.854 0 1.204 1.204 0 0 0 2.407 0c-.006-5.981-4.853-10.828-10.834-10.835Z" fill="#fff" fill-rule="evenodd" data-name="Path 996"/></g></g></svg>