<svg xmlns="http://www.w3.org/2000/svg" width="65" height="65" viewBox="245.5 554.5 65 65"><g data-name="Group 4588"><g data-name="fi-rr-shield-plus"><path d="m286.035 575.586-7.57-2.524a1.208 1.208 0 0 0-.764 0l-7.57 2.524a6.033 6.033 0 0 0-4.131 5.731v6.183c0 9.139 11.116 14.186 11.593 14.396.312.139.668.139.98 0 .477-.21 11.593-5.257 11.593-14.396v-6.183a6.033 6.033 0 0 0-4.13-5.73Zm1.715 11.914c0 6.591-7.636 10.915-9.667 11.95-2.033-1.032-9.666-5.342-9.666-11.95v-6.183c0-1.56.998-2.945 2.479-3.439l7.187-2.396 7.187 2.396a3.625 3.625 0 0 1 2.48 3.44v6.182Z" fill="#fff" fill-rule="evenodd" data-name="Path 921"/><path d="M281.708 585.083h-2.417v-2.416a1.208 1.208 0 1 0-2.416 0v2.416h-2.417a1.208 1.208 0 1 0 0 2.417h2.417v2.417a1.208 1.208 0 0 0 2.416 0V587.5h2.417a1.208 1.208 0 0 0 0-2.417Z" fill="#fff" fill-rule="evenodd" data-name="Path 922"/></g><path d="M255.348 554.5h45.304a9.848 9.848 0 0 1 9.848 9.848v45.304a9.848 9.848 0 0 1-9.848 9.848h-45.304a9.848 9.848 0 0 1-9.848-9.848v-45.304a9.848 9.848 0 0 1 9.848-9.848z" stroke-linejoin="round" stroke-linecap="round" stroke="#fff" fill="transparent" data-name="Rectangle 6" stroke-width=".98485"/><g data-name="fi-rr-shield-plus"><path d="m286.035 575.586-7.57-2.524a1.208 1.208 0 0 0-.764 0l-7.57 2.524a6.033 6.033 0 0 0-4.131 5.731v6.183c0 9.139 11.116 14.186 11.593 14.396.312.139.668.139.98 0 .477-.21 11.593-5.257 11.593-14.396v-6.183a6.033 6.033 0 0 0-4.13-5.73Zm1.715 11.914c0 6.591-7.636 10.915-9.667 11.95-2.033-1.032-9.666-5.342-9.666-11.95v-6.183c0-1.56.998-2.945 2.479-3.439l7.187-2.396 7.187 2.396a3.625 3.625 0 0 1 2.48 3.44v6.182Z" fill="#fff" fill-rule="evenodd" data-name="Path 921"/><path d="M281.708 585.083h-2.417v-2.416a1.208 1.208 0 1 0-2.416 0v2.416h-2.417a1.208 1.208 0 1 0 0 2.417h2.417v2.417a1.208 1.208 0 0 0 2.416 0V587.5h2.417a1.208 1.208 0 0 0 0-2.417Z" fill="#fff" fill-rule="evenodd" data-name="Path 922"/></g></g></svg>