<svg xmlns="http://www.w3.org/2000/svg" width="65" height="65" viewBox="65.5 193.5 65 65"><g data-name="Group 4636"><path d="M75.348 193.5h45.304a9.848 9.848 0 0 1 9.848 9.848v45.304a9.848 9.848 0 0 1-9.848 9.848H75.348a9.848 9.848 0 0 1-9.848-9.848v-45.304a9.848 9.848 0 0 1 9.848-9.848z" stroke-linejoin="round" stroke-linecap="round" stroke="#fff" fill="transparent" data-name="Rectangle 6" stroke-width=".98485"/><path d="M93.063 227.708a5.438 5.438 0 1 1 0-10.875 5.438 5.438 0 0 1 0 10.875Zm0-8.458a3.02 3.02 0 1 0 0 6.042 3.02 3.02 0 0 0 0-6.042Zm9.062 20.542v-.605a9.062 9.062 0 0 0-18.125 0v.605a1.208 1.208 0 0 0 2.417 0v-.605a6.646 6.646 0 0 1 13.291 0v.605a1.208 1.208 0 0 0 2.417 0ZM113 233.75a8.458 8.458 0 0 0-14.098-6.304 1.208 1.208 0 1 0 1.612 1.8 6.042 6.042 0 0 1 10.07 4.504 1.208 1.208 0 1 0 2.416 0Zm-7.854-10.875a5.438 5.438 0 1 1 0-10.875 5.438 5.438 0 0 1 0 10.875Zm0-8.458a3.02 3.02 0 1 0 0 6.041 3.02 3.02 0 0 0 0-6.041Z" fill="#fff" fill-rule="evenodd" data-name="fi-rr-users"/></g></svg>