<svg xmlns="http://www.w3.org/2000/svg" width="21.12" height="16.441" viewBox="0 2.64 21.12 16.441"><g data-name="fi-rr-eye"><path d="M20.475 8.59c-1.365-2.222-4.468-5.95-9.915-5.95-5.447 0-8.55 3.728-9.915 5.95a4.317 4.317 0 0 0 0 4.541c1.365 2.222 4.468 5.95 9.915 5.95 5.447 0 8.55-3.728 9.915-5.95.86-1.391.86-3.15 0-4.54Zm-1.5 3.62c-1.172 1.905-3.824 5.112-8.415 5.112-4.591 0-7.243-3.207-8.415-5.112a2.567 2.567 0 0 1 0-2.699C3.317 7.606 5.969 4.4 10.56 4.4c4.591 0 7.243 3.203 8.415 5.112a2.567 2.567 0 0 1 0 2.699Z" fill="#22c7b8" fill-rule="evenodd" data-name="Path 800"/><path d="M10.56 6.462a4.398 4.398 0 1 0 0 8.797 4.398 4.398 0 0 0 0-8.797Zm0 7.038a2.639 2.639 0 1 1 0-5.278 2.639 2.639 0 0 1 0 5.278Z" fill="#22c7b8" fill-rule="evenodd" data-name="Path 801"/></g></svg>