<svg xmlns="http://www.w3.org/2000/svg" width="19" height="19" viewBox="170.5 286.5 19 19"><g data-name="Group 4541"><path d="M180 286.5h0a9.5 9.5 0 0 1 9.5 9.5h0a9.5 9.5 0 0 1-9.5 9.5h0a9.5 9.5 0 0 1-9.5-9.5h0a9.5 9.5 0 0 1 9.5-9.5z" stroke-linejoin="round" stroke-linecap="round" stroke="#fff" fill="transparent" data-name="Rectangle 13" stroke-width=".95"/><path d="M184.058 291.942a.676.676 0 0 0-.956 0L180 295.044l-3.102-3.102a.676.676 0 0 0-.956.956l3.102 3.102-3.102 3.102a.676.676 0 0 0 .956.956l3.102-3.102 3.102 3.102a.676.676 0 0 0 .956-.956L180.956 296l3.102-3.102a.676.676 0 0 0 0-.956Z" fill="#fff" fill-rule="evenodd" data-name="fi-rr-cross-small"/></g></svg>