<svg xmlns="http://www.w3.org/2000/svg" width="65" height="65" viewBox="245.5 368.5 65 65"><g data-name="Group 345"><path d="M255.348 368.5h45.304a9.848 9.848 0 0 1 9.848 9.848v45.304a9.848 9.848 0 0 1-9.848 9.848h-45.304a9.848 9.848 0 0 1-9.848-9.848v-45.304a9.848 9.848 0 0 1 9.848-9.848z" stroke-linejoin="round" stroke-linecap="round" stroke="#fff" fill="transparent" data-name="Rectangle 6" stroke-width=".98485"/><path d="M271.189 413.826a1.204 1.204 0 0 1-.62-2.236c4.265-2.561 4.265-8.062 4.265-11.349a3.611 3.611 0 1 1 7.222 0 1.204 1.204 0 1 1-2.407 0 1.204 1.204 0 0 0-2.408 0c0 3.548 0 10.153-5.433 13.414-.187.112-.401.171-.62.17Zm5.974 1.71c2.747-2.768 4.352-6.661 4.768-11.581a1.204 1.204 0 0 0-1.096-1.306 1.183 1.183 0 0 0-1.302 1.097c-.374 4.402-1.708 7.704-4.078 10.088a1.204 1.204 0 1 0 1.708 1.698Zm6.26-.223a21.418 21.418 0 0 0 1.815-3.83 1.204 1.204 0 0 0-2.264-.816 19.085 19.085 0 0 1-1.61 3.396 1.205 1.205 0 1 0 2.059 1.25Zm2.847-7.62a37.87 37.87 0 0 0 .602-7.452 8.426 8.426 0 0 0-14.702-5.618 1.204 1.204 0 1 0 1.792 1.606 6.019 6.019 0 0 1 10.502 4.012 35.735 35.735 0 0 1-.556 6.993 1.204 1.204 0 0 0 2.362.46Zm-13.844-7.452c0-.336.028-.671.083-1.002a1.204 1.204 0 1 0-2.37-.402c-.08.464-.12.934-.12 1.404 0 5.592-1.62 8.427-4.815 8.427a1.204 1.204 0 1 0 0 2.407c4.657 0 7.222-3.852 7.222-10.834Zm16.492 14.944a35.824 35.824 0 0 0 2.769-14.944c.005-2-.448-3.973-1.325-5.77a1.205 1.205 0 0 0-2.166 1.053 10.713 10.713 0 0 1 1.083 4.717 33.597 33.597 0 0 1-2.55 13.947 1.204 1.204 0 0 0 2.189.997Zm-21.307-11.332v-3.612c.007-5.98 4.854-10.827 10.834-10.833a10.727 10.727 0 0 1 6.5 2.166 1.204 1.204 0 1 0 1.445-1.926 13.121 13.121 0 0 0-7.945-2.648c-7.31.009-13.233 5.932-13.241 13.241v3.612a1.204 1.204 0 1 0 2.407 0Z" fill="#fff" fill-rule="evenodd" data-name="fi-rr-fingerprint"/></g></svg>