<svg xmlns="http://www.w3.org/2000/svg" width="109.361" height="145.864" viewBox="141 190 109.361 145.864"><g data-name="fingerprint"><g data-name="Group 342"><path d="M207.203 261.82c-2.679-7.946-11.292-12.217-19.239-9.538-7.448 2.51-11.749 10.29-9.915 17.933 5.467 19.004 25.461 36.059 43.773 50.55a3.037 3.037 0 1 0 3.772-4.762c-17.577-13.908-36.74-30.191-41.708-47.465a9.116 9.116 0 0 1 6.244-11.279 9.116 9.116 0 0 1 11.279 6.244c3.316 11.54 19.806 25.801 35.494 38.215a3.037 3.037 0 0 0 3.772-4.762c-8.285-6.54-30.223-23.9-33.472-35.135Z" fill="#fff" fill-rule="evenodd" data-name="Path 1995"/><path d="M230.222 253.992c-6.602-20.242-27.993-31.677-48.492-25.923-20.957 6.014-33.072 27.879-27.058 48.836l.013.045c4.986 17.322-5.704 22.126-9.11 23.183a3.037 3.037 0 0 0 1.821 5.794c9.287-2.903 18.306-12.67 13.125-30.66-5.107-17.728 5.124-36.24 22.851-41.347l.028-.008c17.529-4.927 35.792 5.007 41.18 22.4.071.237.174.463.303.674.316.522.966 1.622 20.487 17.462a3.037 3.037 0 1 0 3.832-4.714c-7.094-5.757-17.462-14.315-18.98-15.742Z" fill="#fff" fill-rule="evenodd" data-name="Path 1996"/><path d="M218.889 258.462c-4.195-14.484-19.312-22.85-33.812-18.713-14.238 4.396-22.503 19.212-18.762 33.636 6.135 27.938 1.549 34.389-11.036 38.324a3.037 3.037 0 0 0 1.822 5.795c17.584-5.467 21.404-16.958 15.184-45.425-3.021-11.288 3.367-22.957 14.504-26.493 11.285-3.204 23.039 3.31 26.305 14.576 1.215 4.143 4.44 9.827 29.312 29.512a3.037 3.037 0 0 0 3.771-4.762c-22.575-17.856-26.438-23.51-27.288-26.45Z" fill="#fff" fill-rule="evenodd" data-name="Path 1997"/><path d="M227.246 300.734c-10.277-7.798-27.477-20.844-31.71-35.555a3.037 3.037 0 0 0-5.837 1.677c4.786 16.654 22.994 30.465 33.872 38.72a80.584 80.584 0 0 1 6.378 5.101 3.037 3.037 0 0 0 4.294-4.294 79.666 79.666 0 0 0-6.997-5.649Z" fill="#fff" fill-rule="evenodd" data-name="Path 1998"/><path d="M210.81 321.859a19.837 19.837 0 0 0-15.147-10.29c-10.325 0-11.922 17.554-12.147 21.07a3.037 3.037 0 0 0 2.842 3.22h.195a3.037 3.037 0 0 0 3.037-2.85c.382-6.255 2.775-15.365 6.073-15.365 4.5 0 7.695 4.336 10.258 7.816a32.738 32.738 0 0 0 2.776 3.438 3.037 3.037 0 0 0 4.294-4.294 26.985 26.985 0 0 1-2.18-2.745Z" fill="#fff" fill-rule="evenodd" data-name="Path 1999"/><path d="M183.376 295.463a3.037 3.037 0 0 0-5.788 1.822c2.6 8.12-2.508 24.057-10.191 26.553a3.037 3.037 0 1 0 1.876 5.776c11.686-3.765 17.322-24.063 14.103-34.151Z" fill="#fff" fill-rule="evenodd" data-name="Path 2000"/><path d="M248.224 254.016c-3.796-1.215-6.778-6.073-10.234-11.619-7.312-11.82-17.34-28.005-45.364-28.005-28.498.033-51.592 23.127-51.626 51.626a3.037 3.037 0 0 0 6.074 0c.027-25.147 20.406-45.526 45.552-45.553 24.641 0 33.272 13.933 40.208 25.133 4.081 6.59 7.604 12.28 13.52 14.2a3.037 3.037 0 0 0 1.94-5.755l-.063-.021-.007-.006Z" fill="#fff" fill-rule="evenodd" data-name="Path 2001"/><path d="M147.074 290.312a3.037 3.037 0 0 0 2.715-4.397 26.914 26.914 0 0 1-2.715-7.75 3.037 3.037 0 0 0-6.074 0 31.046 31.046 0 0 0 3.359 10.471 3.038 3.038 0 0 0 2.715 1.676Z" fill="#fff" fill-rule="evenodd" data-name="Path 2002"/><path d="M145.495 226.096c1.432.873 3.3.42 4.174-1.012l.005-.009c2.636-4.349 15.62-16.757 39.916-16.757 23.346 0 39.958 11.825 42.952 16.757a3.037 3.037 0 0 0 5.193-3.152c-4.167-6.863-22.563-19.678-48.145-19.678-27.204 0-41.787 14.206-45.115 19.684a3.037 3.037 0 0 0 1.02 4.167Z" fill="#fff" fill-rule="evenodd" data-name="Path 2003"/><path d="M163.473 201.977a46.48 46.48 0 0 0 3.686-1.822c4.568-2.302 7.854-3.984 22.43-3.984a68.89 68.89 0 0 1 28.868 4.622c1.16.431 2.326.862 3.547 1.281a3.037 3.037 0 1 0 1.98-5.74c-1.178-.406-2.296-.82-3.413-1.214a74.887 74.887 0 0 0-30.981-5.023c-16.06 0-20.08 2.065-25.182 4.683a66.688 66.688 0 0 1-3.395 1.658 3.037 3.037 0 1 0 2.478 5.54h-.018Z" fill="#fff" fill-rule="evenodd" data-name="Path 2004"/><path d="M244.392 242.646a3.037 3.037 0 0 0 5.788-1.822 76.596 76.596 0 0 0-6.384-12.815 3.037 3.037 0 1 0-5.174 3.182 71.904 71.904 0 0 1 5.77 11.455Z" fill="#fff" fill-rule="evenodd" data-name="Path 2005"/></g><path d="M223.687 321.421a3.037 3.037 0 0 1-1.883-.656c-18.312-14.497-38.288-31.546-43.754-50.55-1.958-8.155 3.066-16.352 11.22-18.309 7.643-1.834 15.423 2.467 17.933 9.915 3.231 11.23 25.17 28.594 33.405 35.13a3.037 3.037 0 1 1-3.766 4.761c-15.688-12.414-32.19-26.669-35.5-38.215a9.113 9.113 0 1 0-17.516 5.035c4.968 17.274 24.13 33.557 41.701 47.466a3.037 3.037 0 0 1-1.889 5.417l.049.006Z" fill="#fff" fill-rule="evenodd" data-name="Path 2006"/><path d="M146.467 306.049a3.037 3.037 0 0 1-.905-5.934c3.395-1.063 14.085-5.867 9.11-23.183-6.027-20.954 6.074-42.826 27.027-48.853l.031-.01c20.502-5.758 41.896 5.678 48.498 25.923 1.513 1.421 11.88 9.985 18.974 15.743a3.037 3.037 0 0 1-3.826 4.713c-19.527-15.846-20.177-16.945-20.493-17.468a3.06 3.06 0 0 1-.297-.668c-5.388-17.395-23.655-27.33-41.185-22.4-17.732 5.095-27.976 23.6-22.881 41.331l.001.007c5.175 17.984-3.838 27.756-13.131 30.66-.299.094-.61.14-.923.139Z" fill="#fff" fill-rule="evenodd" data-name="Path 2007"/><path d="M156.184 317.643a3.037 3.037 0 0 1-.904-5.934c12.584-3.935 17.164-10.398 11.03-38.324-3.738-14.424 4.525-29.238 18.76-33.636 14.502-4.127 29.613 4.235 33.819 18.713.844 2.933 4.7 8.588 27.24 26.432a3.037 3.037 0 1 1-3.766 4.762c-24.902-19.69-28.127-25.382-29.311-29.512-3.255-11.279-15.023-17.798-26.311-14.576-11.15 3.539-17.539 15.227-14.498 26.523 6.25 28.473 2.43 39.934-15.184 45.425a2.984 2.984 0 0 1-.875.127Z" fill="#fff" fill-rule="evenodd" data-name="Path 2008"/><path d="M232.105 311.57a3.036 3.036 0 0 1-2.15-.887 81.104 81.104 0 0 0-6.378-5.108c-10.877-8.254-29.086-22.065-33.872-38.72a3.037 3.037 0 1 1 5.836-1.676c4.252 14.71 21.428 27.757 31.705 35.555a80.317 80.317 0 0 1 7.003 5.655 3.037 3.037 0 0 1-2.144 5.18Z" fill="#fff" fill-rule="evenodd" data-name="Path 2009"/><path d="M186.553 335.864h-.195a3.037 3.037 0 0 1-2.842-3.219c.218-3.517 1.822-21.07 12.147-21.07a19.86 19.86 0 0 1 15.184 10.296 26.09 26.09 0 0 0 2.174 2.745 3.037 3.037 0 0 1-4.294 4.294 31.826 31.826 0 0 1-2.775-3.431c-2.588-3.499-5.782-7.835-10.29-7.835-3.291 0-5.69 9.11-6.073 15.372a3.036 3.036 0 0 1-3.036 2.848Z" fill="#fff" fill-rule="evenodd" data-name="Path 2010"/><path d="M168.332 329.79a3.037 3.037 0 0 1-.936-5.927c7.677-2.496 12.755-18.434 10.192-26.554a3.037 3.037 0 1 1 5.782-1.822c3.225 10.088-2.43 30.368-14.103 34.182-.304.09-.619.13-.935.122Z" fill="#fff" fill-rule="evenodd" data-name="Path 2011"/><path d="M144.037 269.055a3.037 3.037 0 0 1-3.037-3.037c.034-28.499 23.128-51.593 51.626-51.626 28.024 0 38.051 16.186 45.37 28.005 3.456 5.57 6.438 10.386 10.234 11.62a3.037 3.037 0 1 1-1.876 5.775c-5.916-1.919-9.439-7.61-13.52-14.2-6.937-11.193-15.567-25.126-40.208-25.126-25.147.026-45.525 20.405-45.552 45.552a3.037 3.037 0 0 1-3.037 3.037Z" fill="#fff" fill-rule="evenodd" data-name="Path 2012"/><path d="M147.074 290.312a3.037 3.037 0 0 1-2.721-1.676A30.976 30.976 0 0 1 141 278.165a3.037 3.037 0 0 1 6.074 0 26.996 26.996 0 0 0 2.715 7.75 3.037 3.037 0 0 1-2.715 4.397Z" fill="#fff" fill-rule="evenodd" data-name="Path 2013"/><path d="M235.142 226.539a3.037 3.037 0 0 1-2.6-1.464c-2.988-4.932-19.606-16.757-42.953-16.757-24.294 0-37.28 12.408-39.921 16.757a3.037 3.037 0 1 1-5.187-3.152c3.322-5.472 17.905-19.678 45.109-19.678 25.582 0 43.979 12.815 48.145 19.684a3.037 3.037 0 0 1-2.593 4.61Z" fill="#fff" fill-rule="evenodd" data-name="Path 2014"/><path d="M222.994 202.245c-.336 0-.67-.055-.99-.164-1.214-.42-2.392-.857-3.553-1.282a68.905 68.905 0 0 0-28.861-4.628c-14.577 0-17.863 1.682-22.4 4.009a95.756 95.756 0 0 1-3.687 1.822 3.041 3.041 0 1 1-2.46-5.564c1.282-.577 2.37-1.136 3.402-1.664 5.065-2.612 9.092-4.677 25.145-4.677a74.859 74.859 0 0 1 30.975 5.005c1.118.413 2.235.832 3.414 1.215a3.037 3.037 0 0 1-.985 5.928Z" fill="#fff" fill-rule="evenodd" data-name="Path 2015"/><path d="M247.289 244.76c-1.32-.001-2.49-.855-2.891-2.114a72.069 72.069 0 0 0-5.77-11.479 3.037 3.037 0 1 1 5.174-3.182 76.687 76.687 0 0 1 6.378 12.815 3.037 3.037 0 0 1-2.891 3.96Z" fill="#fff" fill-rule="evenodd" data-name="Path 2016"/></g></svg>