<svg xmlns="http://www.w3.org/2000/svg" width="180.5" height="180.5" viewBox="310.75 1874.7 180.5 180.5"><g data-name="CompositeLayer"><path d="M310.75 1964.9a90.25 90.25 0 1 1 0 .1z" stroke-linejoin="round" stroke-linecap="round" stroke-width="1.4876399999999999" stroke="#fff" fill="transparent" data-name="Ellipse 2"/><path d="m438.35 1936.06-49.811 49.808a3.605 3.605 0 0 1-5.108 0l-19.263-19.28a3.605 3.605 0 0 0-5.107 0 3.605 3.605 0 0 0 0 5.107l19.27 19.267c4.232 4.224 11.086 4.224 15.319 0l49.808-49.797a3.605 3.605 0 0 0 0-5.104 3.605 3.605 0 0 0-5.108 0Z" fill="#fff" fill-rule="evenodd" data-name="fi-rr-check"/></g></svg>