<svg xmlns="http://www.w3.org/2000/svg" width="19.25" height="21" viewBox="588 90 19.25 21"><g data-name="notification"><path d="M596.75 111a3.285 3.285 0 0 1-3.281-3.281.656.656 0 0 1 1.312 0c0 1.086.884 1.969 1.969 1.969a1.971 1.971 0 0 0 1.969-1.97.656.656 0 0 1 1.312 0A3.285 3.285 0 0 1 596.75 111Zm0 0" fill="#404040" fill-rule="evenodd" data-name="Path 144"/><path d="M603.969 108.375H589.53a1.533 1.533 0 0 1-.996-2.695.604.604 0 0 1 .07-.053 5.88 5.88 0 0 0 2.02-4.436V98.75a6.132 6.132 0 0 1 6.125-6.125c.14 0 .291.003.431.026a.656.656 0 1 1-.215 1.294c-.07-.011-.147-.007-.216-.007a4.818 4.818 0 0 0-4.812 4.812v2.441a7.197 7.197 0 0 1-2.54 5.487c-.014.01-.025.02-.04.03a.216.216 0 0 0-.046.136c0 .119.1.218.22.218h14.437c.119 0 .219-.1.219-.218a.21.21 0 0 0-.048-.136l-.037-.03a7.195 7.195 0 0 1-2.54-5.487v-.953a.656.656 0 0 1 1.312 0v.953c0 1.704.736 3.317 2.022 4.44a.64.64 0 0 1 .067.05 1.533 1.533 0 0 1-.996 2.694Zm0 0" fill="#404040" fill-rule="evenodd" data-name="Path 145"/><path d="M602.875 98.75a4.38 4.38 0 0 1-4.375-4.375A4.38 4.38 0 0 1 602.875 90a4.38 4.38 0 0 1 4.375 4.375 4.38 4.38 0 0 1-4.375 4.375Zm0-7.437a3.066 3.066 0 0 0-3.062 3.062 3.066 3.066 0 0 0 3.062 3.062 3.066 3.066 0 0 0 3.062-3.062 3.066 3.066 0 0 0-3.062-3.062Zm0 0" fill="#22c7b8" fill-rule="evenodd" data-name="Path 146"/></g></svg>