<svg xmlns="http://www.w3.org/2000/svg" width="12.562" height="15.075" viewBox="510.4 92.52 12.562 15.075"><g data-name="Group 337"><g data-name="fi-rr-lock"><path d="M521.078 97.811v-.894a4.397 4.397 0 1 0-8.794 0v.894a3.14 3.14 0 0 0-1.884 2.874v3.769a3.144 3.144 0 0 0 3.14 3.14h6.282a3.144 3.144 0 0 0 3.14-3.14v-3.769a3.14 3.14 0 0 0-1.884-2.874Zm-7.537-.894a3.14 3.14 0 1 1 6.28 0v.628h-6.28v-.628Zm8.165 7.537c0 1.04-.844 1.884-1.884 1.884h-6.281a1.884 1.884 0 0 1-1.885-1.884v-3.769c0-1.04.844-1.884 1.885-1.884h6.28c1.041 0 1.885.844 1.885 1.884v3.769Z" fill="#22c7b8" fill-rule="evenodd" data-name="Path 867"/><path d="M516.681 101.313a.628.628 0 0 0-.628.629v1.256a.628.628 0 1 0 1.256 0v-1.256a.628.628 0 0 0-.628-.629Z" fill="#22c7b8" fill-rule="evenodd" data-name="Path 868"/></g></g></svg>