<svg xmlns="http://www.w3.org/2000/svg" width="20" height="20" viewBox="32 191 20 20"><g data-name="Group 2878"><path d="M36 191h12a4 4 0 0 1 4 4v12a4 4 0 0 1-4 4H36a4 4 0 0 1-4-4v-12a4 4 0 0 1 4-4z" fill="#22c7b8" fill-rule="evenodd" data-name="Rectangle 1558"/><g data-name="fi-rr-user"><path d="M42.206 200.94a3.47 3.47 0 1 0 0-6.94 3.47 3.47 0 0 0 0 6.94Zm0-5.783a2.314 2.314 0 1 1 0 4.627 2.314 2.314 0 0 1 0-4.627Z" fill="#fff" fill-rule="evenodd" data-name="Path 997"/><path d="M42.206 202.097A5.211 5.211 0 0 0 37 207.303a.578.578 0 0 0 1.157 0 4.049 4.049 0 0 1 8.097 0 .578.578 0 0 0 1.157 0 5.211 5.211 0 0 0-5.205-5.206Z" fill="#fff" fill-rule="evenodd" data-name="Path 998"/></g></g></svg>