<svg xmlns="http://www.w3.org/2000/svg" width="14.684" height="14.715"><g data-name="Group 128"><path d="m14.298 10.799-2.053-2.053c-.733-.734-1.98-.44-2.273.513-.22.66-.954 1.027-1.614.88-1.467-.367-3.447-2.274-3.813-3.814-.22-.66.22-1.393.88-1.613.953-.293 1.246-1.54.513-2.274L3.884.385c-.586-.513-1.466-.513-1.98 0L.511 1.778C-.882 3.245.658 7.132 4.105 10.58c3.446 3.447 7.333 5.06 8.8 3.594l1.393-1.394c.514-.587.514-1.467 0-1.98Z" stroke-linejoin="round" stroke-linecap="round" stroke="#22c7b8" fill="transparent" data-name="Path 1168"/></g></svg>