<svg xmlns="http://www.w3.org/2000/svg" width="65" height="65" viewBox="65.5 385.5 65 65"><g data-name="Group 347"><path d="M75.348 385.5h45.304a9.848 9.848 0 0 1 9.848 9.848v45.304a9.848 9.848 0 0 1-9.848 9.848H75.348a9.848 9.848 0 0 1-9.848-9.848v-45.304a9.848 9.848 0 0 1 9.848-9.848z" stroke-linejoin="round" stroke-linecap="round" stroke="#fff" fill="transparent" data-name="Rectangle 6" stroke-width=".98485"/><path d="M104.125 420.917c0 .667-.541 1.208-1.208 1.208H93.25a1.208 1.208 0 0 1 0-2.417h9.667c.667 0 1.208.541 1.208 1.209Zm-4.833 3.625H93.25a1.208 1.208 0 0 0 0 2.416h6.042a1.208 1.208 0 0 0 0-2.416Zm10.875-7.873v10.29a6.049 6.049 0 0 1-6.042 6.041H92.042A6.049 6.049 0 0 1 86 426.958v-16.916A6.049 6.049 0 0 1 92.042 404h5.455a8.408 8.408 0 0 1 5.982 2.477l4.21 4.212a8.4 8.4 0 0 1 2.478 5.98Zm-8.397-8.483a6.054 6.054 0 0 0-1.27-.943v5.215c0 .668.541 1.209 1.208 1.209h5.215a6.021 6.021 0 0 0-.943-1.27l-4.21-4.211Zm5.98 8.483c0-.199-.039-.39-.057-.586h-5.985a3.625 3.625 0 0 1-3.625-3.625v-5.985c-.195-.018-.388-.056-.586-.056h-5.455a3.625 3.625 0 0 0-3.625 3.625v16.916a3.625 3.625 0 0 0 3.625 3.625h12.083a3.625 3.625 0 0 0 3.625-3.625V416.67Z" fill="#fff" fill-rule="evenodd" data-name="fi-rr-document"/></g></svg>