<svg xmlns="http://www.w3.org/2000/svg" width="65" height="65" viewBox="245.5 176.5 65 65"><g data-name="Group 346"><path d="M255.348 176.5h45.304a9.848 9.848 0 0 1 9.848 9.848v45.304a9.848 9.848 0 0 1-9.848 9.848h-45.304a9.848 9.848 0 0 1-9.848-9.848v-45.304a9.848 9.848 0 0 1 9.848-9.848z" stroke-linejoin="round" stroke-linecap="round" stroke="#fff" fill="transparent" data-name="Rectangle 6" stroke-width=".98485"/><g data-name="fi-rr-checkbox"><path d="M286.958 195h-16.916a6.049 6.049 0 0 0-6.042 6.042v16.916a6.049 6.049 0 0 0 6.042 6.042h16.916a6.049 6.049 0 0 0 6.042-6.042v-16.916a6.049 6.049 0 0 0-6.042-6.042Zm3.625 22.958a3.625 3.625 0 0 1-3.625 3.625h-16.916a3.625 3.625 0 0 1-3.625-3.625v-16.916a3.625 3.625 0 0 1 3.625-3.625h16.916a3.625 3.625 0 0 1 3.625 3.625v16.916Z" fill="#fff" fill-rule="evenodd" data-name="Path 754"/><path d="m275.277 214.235-4.735-4.735a1.208 1.208 0 0 0-1.709 1.709l4.736 4.735a2.417 2.417 0 0 0 3.418 0l11.18-11.18a1.208 1.208 0 0 0-1.709-1.709l-11.18 11.18Z" fill="#fff" fill-rule="evenodd" data-name="Path 755"/></g></g></svg>