<svg xmlns="http://www.w3.org/2000/svg" width="19" height="19" viewBox="52.5 286.5 19 19"><g data-name="Group 4464"><path d="M62 286.5h0a9.5 9.5 0 0 1 9.5 9.5h0a9.5 9.5 0 0 1-9.5 9.5h0a9.5 9.5 0 0 1-9.5-9.5h0a9.5 9.5 0 0 1 9.5-9.5z" stroke-linejoin="round" stroke-linecap="round" stroke="#fff" fill="transparent" data-name="Rectangle 13" stroke-width=".95"/><path d="m60.148 298.62-2.722-2.722a.694.694 0 0 0-.982.982l2.722 2.722a1.389 1.389 0 0 0 1.964 0l6.426-6.426a.694.694 0 0 0-.982-.982l-6.426 6.426Z" fill="#fff" fill-rule="evenodd" data-name="Path 755"/></g></svg>